<svg width="400" height="400" viewBox="0 0 200 200" xmlns="http://www.w3.org/2000/svg" xmlns:xlink="http://www.w3.org/1999/xlink">
	<g style="fill:white; stroke:#5da7c8; stroke-width:4 ">
		<circle cx="130" cy="65" r="60"  fill="#5da7c8" style="opacity:0.2" />
		<rect x="50" y="30" rx="5" ry="5" width="50" height="70"   />
		<rect x="40" y="40" rx="5" ry="5" width="50" height="25"    />
		<rect x="135" y="25" rx="5" ry="5" width="60" height="80"    />
		<rect x="125" y="40" rx="5" ry="5" width="52" height="25"    />
		<polyline points="136,100 152,85 167,97 182,75, 194, 95" style="stroke-width:2" />
		<circle cx="167" cy="78" r="5"  style="stroke-width:2" />
		<path d="M 67 75 L 60 83 L 67 91" stroke-width="2"  />
		<path d="M 83 75 L 90 83 L 83 91" stroke-width="2"  />   
    </g>  
    <g style="font-family:arial; font-weight:bold" fill="#5da7c8">   
		<text x="48" y="58" style=" font-size:16px">SVG</text> 
		<text x="72" y="90" style=" font-size:20px">  /  </text> 
		<text x="130" y="60"  style=" font-size:20px">PNG</text>
		<text x="105" y="80" style="font-size:25px; stroke-width:3">→</text>
    </g>
</svg>
